<?xml version="1.0" encoding="UTF-8" standalone="no"?>
<!-- Created with Inkscape (http://www.inkscape.org/) -->

<svg
   xmlns:dc="http://purl.org/dc/elements/1.1/"
   xmlns:cc="http://creativecommons.org/ns#"
   xmlns:rdf="http://www.w3.org/1999/02/22-rdf-syntax-ns#"
   xmlns:svg="http://www.w3.org/2000/svg"
   xmlns="http://www.w3.org/2000/svg"
   xmlns:sodipodi="http://sodipodi.sourceforge.net/DTD/sodipodi-0.dtd"
   xmlns:inkscape="http://www.inkscape.org/namespaces/inkscape"
   inkscape:export-ydpi="30"
   inkscape:export-xdpi="30"
   inkscape:export-filename="/home/flo/Documents/binary kitchen/binary_kitchen_nur_hut_bw_border.png"
   sodipodi:docname="binary_kitchen_bw_border.svg"
   inkscape:version="0.48.4 r9939"
   version="1.1"
   id="svg3049"
   height="300"
   width="300">
  <sodipodi:namedview
     id="base"
     pagecolor="#000000"
     bordercolor="#666666"
     borderopacity="1.0"
     inkscape:pageopacity="0"
     inkscape:pageshadow="2"
     inkscape:zoom="0.93025308"
     inkscape:cx="78.753842"
     inkscape:cy="55.904298"
     inkscape:document-units="px"
     inkscape:current-layer="layer1"
     showgrid="false"
     inkscape:window-width="1920"
     inkscape:window-height="1031"
     inkscape:window-x="0"
     inkscape:window-y="25"
     inkscape:window-maximized="1"
     showguides="true"
     inkscape:guide-bbox="true"
     inkscape:snap-page="true" />
  <defs
     id="defs3051" />
  <metadata
     id="metadata3054">
    <rdf:RDF>
      <cc:Work
         rdf:about="">
        <dc:format>image/svg+xml</dc:format>
        <dc:type
           rdf:resource="http://purl.org/dc/dcmitype/StillImage" />
        <dc:title />
      </cc:Work>
    </rdf:RDF>
  </metadata>
  <g
     transform="translate(0,-752.36218)"
     id="layer1"
     inkscape:groupmode="layer"
     inkscape:label="Layer 1">
    <path
       style="fill:#000000;fill-opacity:1;fill-rule:nonzero;stroke:none"
       d="m 71.70953,1015.3496 0,-4.0135 -4.013623,1.2725 -3.426264,0.3915 -1.957865,-0.6851 -1.272612,-1.4685 -0.587359,-2.0556 0.293679,-1.762 1.272612,-1.5664 2.153652,-1.4686 1.272613,-0.5873 1.272611,-0.3916 4.307303,-0.685 0.685253,0.1942 0,-3.91576 -0.391573,-0.0969 -2.838905,0.19415 -2.936797,0.68545 -3.132583,1.17471 -2.838905,1.9579 -2.251544,2.9368 -0.58736,1.7621 -0.09789,2.0556 1.076826,3.4263 2.349438,2.7411 1.762078,0.8808 2.055758,0.4897 4.796769,-0.4897 3.034691,-0.9789 z"
       id="path3230"
       inkscape:connector-curvature="0" />
    <path
       style="fill:#000000;fill-opacity:1;fill-rule:nonzero;stroke:none"
       d="m 283.35472,918.63105 -2.83889,0.48964 -17.13133,7.43988 -1.07682,-2.54523 -1.4684,-1.37051 -2.05576,0 -22.80913,9.98512 -22.80912,9.98512 -22.80913,9.9851 -5.38412,-12.33454 -1.27261,-1.17472 -1.66419,0.0971 -5.38413,2.34944 -1.17472,1.17472 0,1.66434 1.4684,3.42611 -5.8736,8.41883 -27.21432,12.72611 -10.27878,4.89467 -14.39032,-5.8736 -24.766988,-10.18089 2.643118,-6.36291 0.29368,-1.56629 -0.29368,-1.5663 -0.881039,-1.27276 -1.370506,-0.88089 -0.783146,-0.39157 -1.370505,1.07667 -1.664185,0.39157 -1.566293,-0.29446 -1.272611,-0.97893 -0.88104,-1.3705 -0.29368,-1.66434 -21.340727,-8.8104 -14.781879,-5.97133 0,7.34184 13.411374,5.48202 20.361794,8.32108 0.685253,0.78315 0,0.88087 -0.685253,0.68542 -0.978931,0 -20.361796,-8.22303 -12.432441,-5.09046 0,10.96405 8.418818,3.4261 20.361796,8.41883 0.685252,0.6854 0,0.97894 -0.685252,0.58736 -0.978933,0.0971 -20.361794,-8.41882 -7.439887,-3.03453 0,7.43988 3.915729,1.56629 21.340728,8.8104 1.272611,-0.88119 1.4684,-0.29446 1.566291,0.29446 1.370506,0.78314 0.881039,1.27277 0.391573,1.56629 0.783146,0.39158 1.566292,0.29446 1.566291,-0.29446 1.272613,-0.8812 0.88104,-1.3705 2.643116,-6.36291 24.766996,10.08285 8.32092,3.42642 -8.22303,3.91572 -27.214324,12.82388 -1.272611,0.97893 -0.88104,1.27277 -0.29368,1.56625 0.391573,1.56624 1.664186,3.91573 -6.95042,3.3284 -0.783146,-2.3495 -1.272613,-1.9578 -1.664185,-1.6643 -1.859971,-1.27253 -2.545225,-0.97893 -2.251544,-0.3915 0,3.91576 3.034691,0.8809 2.545224,2.0559 1.272612,3.2302 -5.384129,2.1537 -1.468398,0.4897 0,4.0134 5.677807,-1.9579 -0.391572,0.7831 -2.349438,2.4475 -3.034691,1.8599 -13.117695,6.2652 -13.411374,5.8736 1.370505,3.5241 13.705055,-5.8736 13.117694,-6.3629 3.719944,-2.2517 3.03469,-3.1326 1.468399,-2.4471 0.783146,-2.741 8.320926,-3.9158 1.174718,2.643 0.88104,1.2728 1.370505,0.8808 1.468399,0.2945 1.664185,-0.2945 27.703787,-11.6491 27.80169,-11.25787 13.31347,5.38427 24.76699,10.1808 24.767,10.083 1.07682,1.762 2.34944,1.9579 5.97149,3.5241 7.24411,2.9368 4.99254,-12.2365 -7.24409,-2.9368 -6.06938,-1.5662 -3.23048,-0.2946 -2.44734,0.3916 -24.76699,-10.18091 -24.76699,-10.08277 -6.46096,-2.6432 18.59973,-7.24416 10.18089,1.46856 1.4684,3.32836 1.17472,1.17471 1.66419,0 5.48202,-2.44748 1.17472,-1.17472 -0.0979,-1.66402 -5.28623,-12.33455 22.80912,-9.98511 22.80913,-9.88737 22.80912,-9.98512 1.4684,-1.46824 -0.0979,-2.05592 -1.07683,-2.54522 17.03342,-7.43988 2.34944,-1.76208 0.97893,-1.27246 0.19579,-0.97893 -0.88104,-0.58736 -1.56629,-0.0971 z"
       id="path3225"
       inkscape:connector-curvature="0" />
    <path
       style="fill:#000000;fill-opacity:1;fill-rule:nonzero;stroke:none"
       d="m 50.858269,959.4527 0,-7.43989 -12.921909,-5.28624 -20.361794,-8.32108 -0.685253,-0.68509 -0.09789,-0.97893 0.58736,-0.68541 1.076825,-0.0971 20.361796,8.41882 12.040869,4.89466 0,-10.96404 -7.83146,-3.23063 -20.361796,-8.32078 -1.859971,-0.48962 -1.566292,0.0971 -1.370506,0.4893 -1.076825,0.97894 -0.881039,0.48963 -0.978932,-0.19423 -0.391573,-0.88119 0.29368,-1.07667 2.447331,-1.76208 2.643118,-0.58736 3.426262,0.48931 20.459689,8.32108 7.048314,2.83875 0,-7.34184 -6.656742,-2.74101 -21.340727,-8.71266 -2.153651,-0.39157 -2.838905,0.29447 -2.643116,1.07666 -1.859973,2.05591 -6.0693804,14.87979 -0.1957865,2.83874 1.1747189,2.74101 1.762078,2.05592 1.859972,1.27245 21.438621,8.8104 17.522891,7.14636 z"
       id="path3220"
       inkscape:connector-curvature="0" />
    <path
       style="fill:#000000;fill-opacity:1;fill-rule:nonzero;stroke:none"
       d="m 187.51724,895.03888 -21.7323,0 0,0.39157 -0.39158,4.60099 -0.88104,4.20947 -1.4684,3.81768 -1.85996,3.32837 -2.25154,2.741 -2.54523,1.95787 -2.8389,1.37051 -3.0347,0.39157 -3.03469,-0.4893 -2.74101,-1.37051 -2.54523,-2.05592 -2.25154,-2.83874 -1.76208,-3.32838 -1.37049,-3.81799 -0.88104,-4.20931 -0.19579,-4.60099 0,-0.0978 -10.2788,0 0,0.39158 -0.19578,20.26365 -0.78315,1.86014 -1.95787,0.78314 -6.46095,-0.0971 -1.95787,-0.78315 -0.78314,-1.85982 0.19578,-20.2638 0,-0.29353 -28.878503,0 0.489467,8.71241 1.272613,21.7323 0.978931,2.15365 2.153652,0.97893 31.03216,1.46856 31.13005,0 31.03217,-1.5663 2.15365,-0.88119 0.97892,-2.25139 1.17472,-21.63456 0.48947,-8.71241 z"
       id="path3218"
       inkscape:connector-curvature="0" />
    <path
       style="fill:#000000;fill-opacity:1;fill-rule:nonzero;stroke:none"
       d="m 99.511211,786.0837 -7.929352,0.48947 -7.439887,1.4684 -6.95042,2.25154 -6.167275,2.9368 -6.558847,4.69887 -4.992556,5.57992 -1.859971,3.03469 -1.370507,3.23048 -0.783145,3.42626 -0.29368,3.42627 0.783146,5.6778 2.251545,5.38413 3.524157,4.89466 4.698875,4.30731 4.600983,3.13258 5.286235,2.54522 5.873594,1.95786 6.265169,1.4684 8.614605,0.68525 0.58736,0.39158 0.293679,0.58736 -0.293679,0.68525 -0.685254,0.29353 -6.65674,-0.39158 0,8.90829 -4.503089,0 -1.272613,0.29352 -0.978932,0.68525 -0.685253,0.97893 -0.195786,1.27262 1.272613,21.6344 0.685251,13.01981 28.878503,0 0.19579,-19.97022 0.88104,-1.85997 1.85997,-0.78315 6.55885,0.0977 1.85997,0.78315 0.78315,1.85997 -0.19579,19.87233 10.2788,0 0.29368,-4.40519 0.97893,-4.20941 1.3705,-3.81784 1.85997,-3.32837 2.25154,-2.74102 2.64312,-2.05575 2.74102,-1.27262 3.03469,-0.48946 3.03469,0.48946 2.83891,1.37051 2.54522,2.15365 2.15365,2.74101 1.85996,3.32838 1.37051,3.81783 0.78315,4.30731 0.29368,4.11151 21.7323,0 0.68525,-13.0198 1.27261,-21.7323 -0.19579,-1.27261 -0.68525,-0.97894 -1.07682,-0.68525 -1.17472,-0.19579 -3.62204,0 0,-11.64929 -4.20942,0.19579 -0.68525,-0.29353 -0.29368,-0.68525 0.39157,-0.58736 0.68526,-0.29352 4.3073,-0.29353 4.50308,-1.27261 4.11152,-1.76207 3.81784,-2.05576 3.32837,-2.34944 3.32837,-3.23048 2.54523,-3.62205 1.66418,-4.01362 0.48947,-4.11152 -0.19579,-2.74101 -0.78314,-2.74101 -2.74101,-4.99255 -4.20942,-4.4052 -5.67781,-3.71995 -5.09045,-2.25154 -5.6778,-1.76208 -6.06938,-0.97893 -6.55885,-0.39158 -7.73357,0.48947 -7.24409,1.56629 -6.55885,2.44733 -5.57992,3.23048 3.62205,3.91573 2.05576,1.07683 2.74101,0.48947 0.68525,0.29352 0.19579,0.68526 -0.29368,0.68524 -0.68525,0.19578 -3.23048,-0.48946 -2.54523,-1.3705 -2.25154,-1.95786 -2.05576,-2.83891 -3.13258,-4.4052 -4.20941,-4.11151 -4.99255,-3.42627 -5.77571,-2.9368 -5.28624,-1.95786 -5.6778,-1.3705 -5.97149,-0.97893 -6.265169,-0.29353 z"
       id="path3021"
       inkscape:connector-curvature="0" />
  </g>
</svg>
